# xmcd
#
# Track frame offsets:
#	150
#	13329
#	25747
#	37766
#	50104
#	60761
#	73221
#	86471
#	100319
#	114265
#	128074
#	142573
#	157628
#	170565
#	185524
#	202198
#
# Disc length: 2922 seconds
#
# Revision: 0
# Processed by: cddbd v1.5.1PL0 Copyright (c) Steve Scherf et al.
# Submitted via: dBpowerAMP V4.0
#
DISCID=ca0b6810
DTITLE=Dolly Parton - The Only Dolly Parton Album You'll Ever Need
DYEAR=2004
DGENRE=Country
TTITLE0=I Will Always Love You
TTITLE1=9 To 5
TTITLE2=Jolene
TTITLE3=D.I.V.O.R.C.E.
TTITLE4=Love Is Like A Butterfly
TTITLE5=In The Ghetto
TTITLE6=Here You Come Again
TTITLE7=Coat Of many Colours
TTITLE8=My Tennessee Mountain Home
TTITLE9=Joshua
TTITLE10=Harper Valley PTA
TTITLE11=You're The Only One
TTITLE12=Higher and Higher
TTITLE13=But You Know I Love You
TTITLE14=The Great Pretender
TTITLE15=Save The Last Dance To Me
EXTD=
EXTT0=
EXTT1=
EXTT2=
EXTT3=
EXTT4=
EXTT5=
EXTT6=
EXTT7=
EXTT8=
EXTT9=
EXTT10=
EXTT11=
EXTT12=
EXTT13=
EXTT14=
EXTT15=
PLAYORDER=
